<svg viewBox="0 0 118 50" xmlns="http://www.w3.org/2000/svg"><rect fill="#262626" height="50" rx="5.79" width="118"/><path d="m26.82 42.98v-4.96c0-1.9-1.16-3.14-3.14-3.14-.99 0-2.07.33-2.81 1.41-.58-.9-1.41-1.41-2.65-1.41-.83 0-1.66.25-2.31 1.16v-.99h-1.73v7.93h1.73v-4.38c0-1.41.74-2.07 1.9-2.07s1.73.74 1.73 2.07v4.38h1.73v-4.38c0-1.41.83-2.07 1.9-2.07 1.16 0 1.73.74 1.73 2.07v4.38zm25.7-7.93h-2.81v-2.4h-1.73v2.4h-1.57v1.57h1.57v3.64c0 1.82.74 2.89 2.72 2.89.74 0 1.57-.25 2.15-.58l-.5-1.49c-.5.33-1.08.41-1.49.41-.83 0-1.16-.5-1.16-1.32v-3.55h2.81v-1.57zm14.71-.17c-.99 0-1.66.5-2.07 1.16v-.99h-1.73v7.93h1.73v-4.47c0-1.32.58-2.07 1.66-2.07.33 0 .74.09 1.08.16l.5-1.66c-.35-.07-.84-.07-1.16-.07zm-22.23.83c-.83-.58-1.98-.83-3.23-.83-1.98 0-3.3.99-3.3 2.56 0 1.32.99 2.07 2.72 2.31l.83.09c.9.16 1.41.41 1.41.83 0 .58-.66.99-1.82.99s-2.07-.41-2.65-.83l-.83 1.32c.9.66 2.15.99 3.39.99 2.31 0 3.64-1.08 3.64-2.56 0-1.41-1.08-2.15-2.72-2.4l-.83-.09c-.74-.09-1.32-.25-1.32-.74 0-.58.58-.9 1.49-.9.99 0 1.98.41 2.48.66l.73-1.41zm46.1-.83c-.99 0-1.66.5-2.07 1.16v-.99h-1.73v7.93h1.73v-4.47c0-1.32.58-2.07 1.66-2.07.33 0 .74.09 1.08.16l.5-1.64c-.34-.09-.83-.09-1.16-.09zm-22.14 4.14c0 2.4 1.66 4.13 4.22 4.13 1.16 0 1.98-.25 2.81-.9l-.83-1.41c-.66.5-1.32.74-2.07.74-1.41 0-2.4-.99-2.4-2.56s.99-2.48 2.4-2.56c.74 0 1.41.25 2.07.74l.83-1.41c-.83-.66-1.66-.9-2.81-.9-2.56 0-4.22 1.73-4.22 4.13zm16.03 0v-3.97h-1.73v.99c-.58-.74-1.41-1.16-2.48-1.16-2.23 0-3.97 1.73-3.97 4.13s1.73 4.13 3.97 4.13c1.16 0 1.98-.41 2.48-1.16v.99h1.73v-3.97zm-6.36 0c0-1.41.9-2.56 2.4-2.56 1.41 0 2.4 1.08 2.4 2.56 0 1.41-.99 2.56-2.4 2.56-1.48-.09-2.4-1.16-2.4-2.56zm-20.74-4.14c-2.31 0-3.97 1.66-3.97 4.13s1.66 4.13 4.05 4.13c1.16 0 2.31-.33 3.23-1.08l-.83-1.24c-.66.5-1.49.83-2.31.83-1.08 0-2.15-.5-2.4-1.9h5.86v-.66c.08-2.55-1.42-4.21-3.64-4.21zm0 1.49c1.08 0 1.82.66 1.98 1.9h-4.13c.16-1.07.9-1.9 2.15-1.9zm43.05 2.65v-7.1h-1.73v4.13c-.58-.74-1.41-1.16-2.48-1.16-2.23 0-3.97 1.73-3.97 4.13s1.73 4.13 3.97 4.13c1.16 0 1.98-.41 2.48-1.16v.99h1.73v-3.97zm-6.36 0c0-1.41.9-2.56 2.4-2.56 1.41 0 2.4 1.08 2.4 2.56 0 1.41-.99 2.56-2.4 2.56-1.49-.09-2.4-1.16-2.4-2.56zm-58.01 0v-3.97h-1.73v.99c-.58-.74-1.41-1.16-2.48-1.16-2.23 0-3.97 1.73-3.97 4.13s1.73 4.13 3.97 4.13c1.16 0 1.98-.41 2.48-1.16v.99h1.73v-3.97zm-6.44 0c0-1.41.9-2.56 2.4-2.56 1.41 0 2.4 1.08 2.4 2.56 0 1.41-.99 2.56-2.4 2.56-1.49-.09-2.4-1.16-2.4-2.56z" fill="#fafafa"/><path d="m63.69 22.58c1.68 0 2.56-.57 2.56-1.76s-.91-1.81-2.66-1.81c-.65 0-1.43.05-2.28.18v-3.92c.7.08 1.36.1 2.01.1 1.81 0 2.71-.54 2.71-1.78s-.83-1.78-2.53-1.78c-1.11 0-2.51.31-4.24.85v-4.09c1.54-.54 3.39-.8 5.57-.8 4.75 0 7.48 2.09 7.48 5.37 0 2.01-1.28 3.48-3.51 3.98 2.49.52 3.76 1.94 3.76 4.11 0 3.4-2.78 5.39-8.11 5.39-1.79 0-3.54-.26-5.35-.69v-4.21c1.79.54 3.29.85 4.6.85h-.01zm19.81-8.08c3.74 0 6.23 2.35 6.23 5.81 0 3.72-2.84 6.3-7.3 6.3-5.27 0-8.66-3.38-8.66-8.93 0-6.32 3.59-9.89 10.07-9.89 1.39 0 2.87.16 4.4.49v4.11c-1.36-.43-2.77-.65-4.19-.65-2.86 0-4.19 1.19-4.26 3.88 1.06-.82 2.21-1.11 3.74-1.11s0-.01 0-.01zm.53 5.68c0-1.5-.83-2.46-2.03-2.46s-2.01.93-2.01 2.46.8 2.43 2.01 2.43 2.03-.93 2.03-2.43zm7.56-11.93h12.22v4.29h-6.51v2.71c.52-.03.88-.05 1-.05 4.04 0 6.23 2.1 6.23 5.63s-2.67 5.81-7.86 5.81c-1.81 0-3.59-.28-5.4-.74v-4.08c1.38.39 2.59.57 3.62.57 2.1 0 3.21-.73 3.21-2.07 0-1.49-1.15-2.24-3.51-2.24-1 0-1.98.18-3.01.44v-10.27h.02z" fill="#f8e150"/><path d="m13.49 6.85h6.2v7.61c.88-1.24 2.09-1.82 3.72-1.82 3.6 0 5.64 2.58 5.64 7.16s-2.07 6.98-5.49 6.98c-2.09 0-3.5-.79-4.31-2.48v2.29h-5.77v-19.74zm6.02 12.82c0 2 .43 2.98 1.54 2.98s1.56-.97 1.56-2.98-.45-2.97-1.56-2.97-1.54.98-1.54 2.98zm25.38 1.27h-8.59c.15 1.48 1.26 2.18 3.35 2.18 1.46 0 2.97-.29 4.43-.86v3.45c-1.43.6-3.4.93-5.69.93-5.29 0-8.13-2.59-8.13-7.15s2.8-7.12 7.46-7.12c5.17 0 7.18 2.46 7.18 7.69v.88zm-5.39-2.62v-.41c0-1.53-.55-2.41-1.61-2.41s-1.64.88-1.64 2.44v.39h3.25zm17.63-5.59v3.96h-2.89v3.24c0 1.66.26 2.44 1.49 2.44.34 0 .79-.06 1.32-.18v3.88c-1.34.41-2.68.57-4.1.57-1.75 0-3.09-.57-3.87-1.55-1.01-1.3-1.04-2.93-1.04-5.1v-3.29h-2.21v-3.96h2.2v-3l6.21-2v5h2.89z" fill="#fafafa"/></svg>