<svg viewBox="0 0 118 50" xmlns="http://www.w3.org/2000/svg"><path d="m118 5.78v38.43c0 3.2-2.59 5.79-5.79 5.79h-106.43c-3.19 0-5.78-2.59-5.78-5.79v-38.43c0-3.19 2.59-5.78 5.78-5.78h106.43c3.2 0 5.79 2.59 5.79 5.78z" fill="#292672"/><path d="m118 5.78v38.43c0 3.2-2.59 5.79-5.79 5.79h-53.21v-50h53.21c3.2 0 5.79 2.59 5.79 5.78z" fill="#191919"/><path d="m18.91 17.34-4.39 11.07-1.76-9.45c-.14-.95-.95-1.69-1.96-1.69h-7.08l-.14.54c1.49.34 3.11.81 4.12 1.42.61.34.81.61 1.01 1.42l3.38 12.96h4.46l6.75-16.27zm6.21 0-3.51 16.27h4.19l3.44-16.27zm24.03 4.46 1.28 6.14h-3.51zm-.61-4.46c-.81 0-1.49.47-1.76 1.22l-6.28 15.05h4.39l.88-2.43h5.4l.54 2.43h3.92l-3.51-16.27zm-18.09 5.13c0 2.36 2.09 3.65 3.65 4.46 1.62.81 2.16 1.28 2.16 2.03 0 1.08-1.28 1.55-2.5 1.62-2.09 0-3.31-.54-4.32-1.01l-.74 3.58c1.01.47 2.77.88 4.66.88 4.39 0 7.29-2.16 7.29-5.54 0-4.32-5.94-4.52-5.87-6.48 0-.61.54-1.22 1.76-1.35 1.49-.27 2.9 0 4.19.61l.74-3.44c-1.28-.47-2.57-.74-3.92-.74-4.19 0-7.09 2.23-7.09 5.4z" fill="#fffffd"/><path d="m72.7 42.52v-2.34c0-.89-.54-1.48-1.48-1.48-.47 0-.98.15-1.32.66-.27-.43-.66-.66-1.25-.66-.39 0-.78.12-1.09.54v-.47h-.82v3.74h.82v-2.06c0-.66.35-.98.89-.98s.82.35.82.98v2.06h.82v-2.06c0-.66.39-.98.89-.98.54 0 .82.35.82.98v2.06h.9zm12.11-3.74h-1.32v-1.13h-.82v1.13h-.74v.74h.74v1.71c0 .86.35 1.36 1.28 1.36.35 0 .74-.12 1.01-.27l-.24-.7c-.24.15-.51.2-.7.2-.39 0-.54-.24-.54-.62v-1.67h1.32v-.74zm6.93-.08c-.47 0-.78.24-.98.54v-.47h-.82v3.74h.82v-2.11c0-.62.27-.98.78-.98.15 0 .35.04.51.08l.24-.78c-.16-.03-.39-.03-.55-.03zm-10.48.39c-.39-.27-.93-.39-1.52-.39-.93 0-1.56.47-1.56 1.21 0 .62.47.98 1.28 1.09l.39.04c.43.08.66.2.66.39 0 .27-.31.47-.86.47s-.98-.2-1.25-.39l-.39.62c.43.31 1.01.47 1.6.47 1.09 0 1.71-.51 1.71-1.21 0-.66-.51-1.01-1.28-1.13l-.39-.04c-.35-.04-.62-.12-.62-.35 0-.27.27-.43.7-.43.47 0 .93.2 1.17.31l.34-.66zm21.73-.39c-.47 0-.78.24-.98.54v-.47h-.82v3.74h.82v-2.11c0-.62.27-.98.78-.98.15 0 .35.04.51.08l.24-.77c-.16-.04-.39-.04-.55-.04zm-10.43 1.95c0 1.13.78 1.95 1.99 1.95.54 0 .93-.12 1.32-.43l-.39-.66c-.31.24-.62.35-.98.35-.66 0-1.13-.47-1.13-1.21s.47-1.17 1.13-1.21c.35 0 .66.12.98.35l.39-.66c-.39-.31-.78-.43-1.32-.43-1.21 0-1.99.82-1.99 1.95zm7.55 0v-1.87h-.82v.47c-.27-.35-.66-.54-1.17-.54-1.05 0-1.87.82-1.87 1.95s.82 1.95 1.87 1.95c.54 0 .93-.2 1.17-.54v.47h.82v-1.87zm-3 0c0-.66.43-1.21 1.13-1.21.66 0 1.13.51 1.13 1.21 0 .66-.47 1.21-1.13 1.21-.7-.04-1.13-.55-1.13-1.21zm-9.77-1.95c-1.09 0-1.87.78-1.87 1.95s.78 1.95 1.91 1.95c.54 0 1.09-.15 1.52-.51l-.39-.59c-.31.24-.7.39-1.09.39-.51 0-1.01-.24-1.13-.89h2.76v-.31c.04-1.2-.67-1.98-1.71-1.98zm0 .7c.51 0 .86.31.93.89h-1.95c.08-.5.43-.89 1.01-.89zm20.29 1.25v-3.35h-.82v1.95c-.27-.35-.66-.54-1.17-.54-1.05 0-1.87.82-1.87 1.95s.82 1.95 1.87 1.95c.54 0 .93-.2 1.17-.54v.47h.82v-1.87zm-3 0c0-.66.43-1.21 1.13-1.21.66 0 1.13.51 1.13 1.21 0 .66-.47 1.21-1.13 1.21-.7-.04-1.13-.55-1.13-1.21zm-27.34 0v-1.87h-.82v.47c-.27-.35-.66-.54-1.17-.54-1.05 0-1.87.82-1.87 1.95s.82 1.95 1.87 1.95c.54 0 .93-.2 1.17-.54v.47h.82v-1.87zm-3.04 0c0-.66.43-1.21 1.13-1.21.66 0 1.13.51 1.13 1.21 0 .66-.47 1.21-1.13 1.21-.7-.04-1.13-.55-1.13-1.21z" fill="#fafafa"/><path d="m81 10.39h12.27v22.04h-12.27z" fill="#ff5a00"/><path d="m81.82 21.41c0-4.48 2.11-8.45 5.34-11.02-2.38-1.87-5.38-3-8.65-3-7.75 0-14.02 6.27-14.02 14.02s6.27 14.02 14.02 14.02c3.27 0 6.27-1.13 8.65-3-3.23-2.53-5.34-6.54-5.34-11.02z" fill="#eb001b"/><path d="m109.82 21.41c0 7.75-6.27 14.02-14.02 14.02-3.27 0-6.27-1.13-8.65-3 3.27-2.57 5.34-6.54 5.34-11.02s-2.11-8.45-5.34-11.02c2.37-1.87 5.37-3 8.64-3 7.75 0 14.02 6.31 14.02 14.02z" fill="#f79e1b"/></svg>