<svg viewBox="0 0 118 50" xmlns="http://www.w3.org/2000/svg"><rect fill="#2d2d2d" height="50" rx="5.79" width="118"/><path d="m39.52 18.46s1.56-8.54 12.17-8.09c0 0-1.59 2.94-1.48 4.23 0 0 6.21-2.23 7.41-5.73-1.33-2.78-3.07-4.94-5.33-6.03-.38 1.96.21 3.67.21 3.67s-12.06.49-12.97 11.94z" fill="#1bce78"/><path d="m79 31.54s-1.56 8.54-12.17 8.09c0 0 1.59-2.94 1.48-4.23 0 0-6.21 2.23-7.41 5.73 1.33 2.78 3.07 4.94 5.33 6.03.38-1.96-.21-3.67-.21-3.67s12.06-.49 12.97-11.94z" fill="#1bce78"/><g fill="#fafafa"><path d="m45.65 19.06c1.07.49 2.13.99 3.21 1.46 2.51 1.11 5.02 2.22 7.54 3.31.33.14.47.31.45.68-.03.78 0 1.56 0 2.37h-22.52c0-.72.04-1.45-.01-2.18-.04-.51.14-.74.61-.94 3.42-1.48 6.83-2.99 10.24-4.49.14-.06.27-.14.4-.21h.09z"/><path d="m58.37 42.82c-.19.3-.46.39-.81.39-7.96 0-15.93 0-23.89 0-.3 0-.67.04-.74-.31-.08-.35-.02-.75.04-1.11.02-.1.26-.18.41-.24.09-.04.21 0 .32 0h23.8c.36 0 .65.08.88.37v.92z"/><path d="m36.72 28.84c-.11-.01-.21-.01-.31-.04-.33-.09-.48-.32-.45-.66.03-.32.22-.52.54-.52 1.23-.01 2.46-.01 3.68 0 .34 0 .52.24.54.57.02.38-.21.57-.76.64v8.56s.03.04.05.04c.42.02.72.18.71.66-.01.38-.28.56-.79.57-1.03 0-2.06 0-3.08 0-.41 0-.79-.01-.88-.52-.07-.4.16-.62.76-.74v-8.57z"/><path d="m43.98 37.44v-8.6c-.11-.01-.22 0-.32-.04-.32-.09-.49-.32-.46-.65.03-.31.22-.53.54-.53 1.23-.01 2.45-.01 3.68 0 .32 0 .51.2.54.52.03.33-.12.56-.44.66-.1.03-.21.03-.33.04v8.57c.12.02.23.03.33.05.33.09.48.32.45.65-.03.32-.23.52-.54.53-1.23.02-2.45.02-3.68 0-.33 0-.53-.24-.54-.58-.01-.33.16-.55.5-.61.09-.02.18-.02.28-.03z"/><path d="m54.58 37.39c.21.08.45.09.56.22.13.16.23.45.16.61-.07.18-.33.41-.52.42-1.21.04-2.42.03-3.64.01-.34 0-.55-.22-.57-.55-.03-.35.15-.58.52-.64.07-.01.15-.02.25-.03v-8.59c-.05 0-.12-.03-.19-.03-.39-.04-.6-.26-.58-.64s.26-.57.65-.57h3.31c.54 0 .77.16.8.54.03.4-.19.61-.76.69v8.54z"/><path d="m45.61 40.86c-3.48 0-6.97 0-10.45 0-.68 0-.87-.21-.83-.89.02-.39.23-.59.61-.61h.28 20.76c.72 0 .9.18.87.85-.02.47-.2.65-.69.66-.8 0-1.6 0-2.39 0-2.72 0-5.43 0-8.15 0z"/><path d="m72.4 5.48c1.07.49 2.13.99 3.21 1.46 2.51 1.11 5.02 2.22 7.54 3.31.33.14.47.31.45.68-.03.78 0 1.56 0 2.37h-22.52c0-.72.04-1.45-.01-2.18-.04-.51.14-.74.61-.94 3.42-1.48 6.83-2.99 10.24-4.49.14-.06.27-.14.4-.21h.09z"/><path d="m85.12 29.25c-.19.3-.46.39-.81.39-7.96 0-15.93 0-23.89 0-.3 0-.67.04-.74-.31-.08-.35-.02-.75.04-1.11.02-.1.26-.18.41-.24.09-.04.21 0 .32 0h23.8c.36 0 .65.08.88.37v.92z"/><path d="m63.47 15.27c-.11-.01-.21-.01-.31-.04-.33-.09-.48-.32-.45-.66.03-.32.22-.52.54-.52 1.23-.01 2.46-.01 3.68 0 .34 0 .52.24.54.57.02.38-.21.57-.76.64v8.56s.03.04.05.04c.42.02.72.18.71.66-.01.38-.28.56-.79.57-1.03 0-2.06 0-3.08 0-.41 0-.79-.01-.88-.52-.07-.4.16-.62.76-.74v-8.56z"/><path d="m70.73 23.87v-8.6c-.11-.01-.22 0-.32-.04-.32-.09-.49-.32-.46-.65.03-.31.22-.53.54-.53 1.23-.01 2.45-.01 3.68 0 .32 0 .51.2.54.52.03.33-.12.56-.44.66-.1.03-.21.03-.33.04v8.57c.12.02.23.03.33.05.33.09.48.32.45.65-.03.32-.23.52-.54.53-1.23.02-2.45.02-3.68 0-.33 0-.53-.24-.54-.58-.01-.33.16-.55.5-.61.09-.02.18-.02.28-.03z"/><path d="m81.33 23.82c.21.08.45.09.56.22.13.16.23.45.16.61-.07.18-.33.41-.52.42-1.21.04-2.42.03-3.64.01-.34 0-.55-.22-.57-.55-.03-.35.15-.58.52-.64.07-.01.15-.02.25-.03v-8.58c-.05 0-.12-.03-.19-.03-.39-.04-.6-.26-.58-.64s.26-.57.65-.57h3.31c.54 0 .77.16.8.54.03.4-.19.61-.76.69v8.54z"/><path d="m72.36 27.29c-3.48 0-6.97 0-10.45 0-.68 0-.87-.21-.83-.89.02-.39.23-.59.61-.61h.28 20.76c.72 0 .9.18.87.85-.02.47-.2.65-.69.66-.8 0-1.6 0-2.39 0-2.72 0-5.43 0-8.15 0z"/></g></svg>