<svg viewBox="0 0 118 50" xmlns="http://www.w3.org/2000/svg"><rect fill="#293f39" height="50" rx="5.79" width="118"/><g fill="#30e288"><path d="m34.01 9.1 1.82 27.35 55.28-3.68-1.82-27.35zm3.74 25.16-1.55-23.24 51.16-3.4 1.55 23.24z"/><path d="m34.19 38.32-1.68-25.3-2.06.14 1.82 27.35 55.28-3.68-.14-2.06-53.22 3.54z"/><path d="m30.64 42.39-1.68-25.3-2.06.14 1.82 27.35 55.28-3.68-.14-2.06-53.22 3.54z"/><path d="m81.69 9.87-39.56 2.63c.14 2.17-1.5 4.04-3.67 4.19l.78 11.76c2.17-.14 4.04 1.5 4.19 3.67l39.56-2.63c-.14-2.17 1.5-4.04 3.67-4.19l-.78-11.76c-2.17.14-4.04-1.5-4.19-3.67zm-18.68 17.87c-3.48.23-6.51-2.63-6.76-6.38-.25-3.76 2.37-6.99 5.85-7.23 3.48-.23 6.51 2.63 6.76 6.39s-2.37 6.99-5.85 7.22z"/></g></svg>